<?xml version="1.0" encoding="utf-8"?>
<!-- Generator: Adobe Illustrator 23.0.2, SVG Export Plug-In . SVG Version: 6.00 Build 0)  -->
<svg version="1.1" id="图层_1" xmlns="http://www.w3.org/2000/svg" width="50" height="50" xmlns:xlink="http://www.w3.org/1999/xlink" x="0px" y="0px"
	 viewBox="0 0 50 50" style="enable-background:new 0 0 50 50;" xml:space="preserve">
<style type="text/css">
	.st0{fill:none;stroke:#231815;stroke-width:0.8;stroke-miterlimit:10;}
</style>
<g>
	<g>
		<path class="st0" d="M63.5,8.6c0,0,0.5-0.7,2.1-0.4c0,0,9.7,1.6,16.9-0.2c0,0,1.4-0.1,1.7,0.9c0,0,4.6,8.5,4.9,9.1
			c0,0,0.2,0.9,0.1,1.8l-1.5,15.9c0,0,0,1.3-2.2,1.4l-25.1,0.2c0,0-1.6,0-1.9-1.1l1.6-17.8c0,0,0-0.3,0.2-0.6
			C60.4,17.6,63.5,8.6,63.5,8.6z"/>
		<path class="st0" d="M63.3,9.4l-1.2,11.2c0,0-0.1,1.1,1.8,1.7c0,0,8.7,2.3,17.1-0.1c0,0,1.7-0.5,2-1.7l1.3-11.7"/>
	</g>
	<path class="st0" d="M62.9,21.9c0,0-3.4,13.9-3.1,15.2"/>
	<path class="st0" d="M82.3,21.4c0,0,3.5,14.4,3.1,15.7"/>
</g>
<g>
	<ellipse transform="matrix(0.7071 -0.7071 0.7071 0.7071 -53.0624 -3.5576)" class="st0" cx="-30.8" cy="62.3" rx="14" ry="20.8"/>
	<path class="st0" d="M-45.5,47.6c-4.8,4.8-3.7,14,2.3,21.7c3.7-1.8,7.6-4.6,11.2-8.2c3.6-3.6,6.4-7.5,8.2-11.2
		C-31.5,43.9-40.7,42.7-45.5,47.6z"/>
	<line class="st0" x1="-45.5" y1="47.6" x2="-41.3" y2="51.8"/>
	<line class="st0" x1="-35.7" y1="57.4" x2="-32" y2="61.1"/>
	<path class="st0" d="M-36.9,53.1c1.5,1.5,2.1,3.5,1.2,4.4c-0.9,0.9-2.8,0.3-4.4-1.2c-1.5-1.5-2.1-3.5-1.2-4.4
		C-40.4,51-38.4,51.5-36.9,53.1z"/>
</g>
<g>
	<rect x="5.4" y="13.1" class="st0" width="39.3" height="23.3"/>
	<line class="st0" x1="8.6" y1="16.7" x2="9.8" y2="16.7"/>
	<line class="st0" x1="12.9" y1="16.7" x2="14.2" y2="16.7"/>
	<line class="st0" x1="16.6" y1="16.7" x2="17.9" y2="16.7"/>
	<line class="st0" x1="20.3" y1="16.7" x2="21.5" y2="16.7"/>
	<line class="st0" x1="24" y1="16.7" x2="25.2" y2="16.7"/>
	<line class="st0" x1="29.1" y1="16.7" x2="30.4" y2="16.7"/>
	<line class="st0" x1="32.8" y1="16.7" x2="34" y2="16.7"/>
	<line class="st0" x1="36.5" y1="16.7" x2="37.7" y2="16.7"/>
	<line class="st0" x1="40.1" y1="16.7" x2="41.4" y2="16.7"/>
	<line class="st0" x1="8.6" y1="21.2" x2="9.8" y2="21.2"/>
	<line class="st0" x1="12.5" y1="21.2" x2="13.8" y2="21.2"/>
	<line class="st0" x1="16.5" y1="21.2" x2="17.7" y2="21.2"/>
	<line class="st0" x1="20.4" y1="21.2" x2="21.7" y2="21.2"/>
	<line class="st0" x1="24.4" y1="21.2" x2="25.6" y2="21.2"/>
	<line class="st0" x1="28.3" y1="21.2" x2="29.6" y2="21.2"/>
	<line class="st0" x1="32.3" y1="21.2" x2="33.5" y2="21.2"/>
	<line class="st0" x1="36.2" y1="21.2" x2="37.4" y2="21.2"/>
	<line class="st0" x1="40.1" y1="21.2" x2="41.4" y2="21.2"/>
	<line class="st0" x1="8.6" y1="24.7" x2="9.8" y2="24.7"/>
	<line class="st0" x1="12.5" y1="24.7" x2="13.8" y2="24.7"/>
	<line class="st0" x1="16.5" y1="24.7" x2="17.7" y2="24.7"/>
	<line class="st0" x1="20.4" y1="24.7" x2="21.7" y2="24.7"/>
	<line class="st0" x1="24.4" y1="24.7" x2="25.6" y2="24.7"/>
	<line class="st0" x1="28.3" y1="24.7" x2="29.6" y2="24.7"/>
	<line class="st0" x1="32.3" y1="24.7" x2="33.5" y2="24.7"/>
	<line class="st0" x1="36.2" y1="24.7" x2="37.4" y2="24.7"/>
	<line class="st0" x1="40.1" y1="24.7" x2="41.4" y2="24.7"/>
	<line class="st0" x1="8.6" y1="28.3" x2="9.8" y2="28.3"/>
	<line class="st0" x1="12.5" y1="28.3" x2="13.8" y2="28.3"/>
	<line class="st0" x1="16.5" y1="28.3" x2="17.7" y2="28.3"/>
	<line class="st0" x1="20.4" y1="28.3" x2="21.7" y2="28.3"/>
	<line class="st0" x1="24.4" y1="28.3" x2="25.6" y2="28.3"/>
	<line class="st0" x1="28.3" y1="28.3" x2="29.6" y2="28.3"/>
	<line class="st0" x1="32.3" y1="28.3" x2="33.5" y2="28.3"/>
	<line class="st0" x1="36.2" y1="28.3" x2="37.4" y2="28.3"/>
	<line class="st0" x1="40.1" y1="28.3" x2="41.4" y2="28.3"/>
	<line class="st0" x1="8.6" y1="31.9" x2="9.8" y2="31.9"/>
	<line class="st0" x1="12.5" y1="31.9" x2="25.6" y2="31.9"/>
	<line class="st0" x1="28.3" y1="31.9" x2="29.6" y2="31.9"/>
	<line class="st0" x1="32.3" y1="31.9" x2="33.5" y2="31.9"/>
	<line class="st0" x1="36.2" y1="31.9" x2="37.4" y2="31.9"/>
	<line class="st0" x1="40.1" y1="31.9" x2="41.4" y2="31.9"/>
</g>
<g>
	<path class="st0" d="M86.1-13.2v-6.3h-3.7c-0.4-1.8-1.1-3.4-2-4.9l2.6-2.6l-4.4-4.5l-2.6,2.6c-1.5-1-3.1-1.7-4.9-2v-3.7h-6.3v3.7
		c-1.8,0.4-3.4,1.1-4.9,2l-2.6-2.6l-4.4,4.5l2.6,2.6c-0.9,1.5-1.6,3.1-2,4.9h-3.7v6.3h3.7c0.4,1.8,1.1,3.4,2,4.9l-2.6,2.6l4.4,4.5
		l2.6-2.6c1.5,1,3.1,1.7,4.9,2V2H71v-3.7c1.8-0.4,3.4-1.1,4.9-2l2.6,2.6L83-5.6l-2.6-2.6c0.9-1.5,1.6-3.1,2-4.9H86.1z"/>
	<ellipse class="st0" cx="67.9" cy="-16.4" rx="8.6" ry="8.6"/>
</g>
</svg>
