<?xml version="1.0" encoding="utf-8"?>
<!-- Generator: Adobe Illustrator 23.0.2, SVG Export Plug-In . SVG Version: 6.00 Build 0)  -->
<svg version="1.1" id="图层_1" xmlns="http://www.w3.org/2000/svg" width="50" height="50" xmlns:xlink="http://www.w3.org/1999/xlink" x="0px" y="0px"
	 viewBox="0 0 50 50" style="enable-background:new 0 0 50 50;" xml:space="preserve">
<style type="text/css">
	.st0{fill:none;stroke:#231815;stroke-width:0.8;stroke-miterlimit:10;}
</style>
<g>
	<g>
		<path class="st0" d="M14.5,10.6c0,0,0.5-0.7,2.1-0.4c0,0,9.7,1.6,16.9-0.2c0,0,1.4-0.1,1.7,0.9c0,0,4.6,8.5,4.9,9.1
			c0,0,0.2,0.9,0.1,1.8l-1.5,15.9c0,0,0,1.3-2.2,1.4l-25.1,0.2c0,0-1.6,0-1.9-1.1l1.6-17.8c0,0,0-0.3,0.2-0.6
			C11.4,19.7,14.5,10.7,14.5,10.6z"/>
		<path class="st0" d="M14.2,11.5L13,22.7c0,0-0.1,1.1,1.8,1.7c0,0,8.7,2.3,17.1-0.1c0,0,1.7-0.5,2-1.7l1.3-11.7"/>
	</g>
	<path class="st0" d="M13.8,23.9c0,0-3.4,13.9-3.1,15.2"/>
	<path class="st0" d="M33.3,23.5c0,0,3.5,14.4,3.1,15.7"/>
</g>
<g>
	<ellipse transform="matrix(0.7071 -0.7071 0.7071 0.7071 -53.0624 -3.5576)" class="st0" cx="-30.8" cy="62.3" rx="14" ry="20.8"/>
	<path class="st0" d="M-45.5,47.6c-4.8,4.8-3.7,14,2.3,21.7c3.7-1.8,7.6-4.6,11.2-8.2c3.6-3.6,6.4-7.5,8.2-11.2
		C-31.5,43.9-40.7,42.7-45.5,47.6z"/>
	<line class="st0" x1="-45.5" y1="47.6" x2="-41.3" y2="51.8"/>
	<line class="st0" x1="-35.7" y1="57.4" x2="-32" y2="61.1"/>
	<path class="st0" d="M-36.9,53.1c1.5,1.5,2.1,3.5,1.2,4.4c-0.9,0.9-2.8,0.3-4.4-1.2c-1.5-1.5-2.1-3.5-1.2-4.4
		C-40.4,51-38.4,51.5-36.9,53.1z"/>
</g>
<g>
	<rect x="-48.1" y="12.9" class="st0" width="39.3" height="23.3"/>
	<line class="st0" x1="-44.9" y1="16.6" x2="-43.6" y2="16.6"/>
	<line class="st0" x1="-40.5" y1="16.6" x2="-39.3" y2="16.6"/>
	<line class="st0" x1="-36.9" y1="16.6" x2="-35.6" y2="16.6"/>
	<line class="st0" x1="-33.2" y1="16.6" x2="-31.9" y2="16.6"/>
	<line class="st0" x1="-29.5" y1="16.6" x2="-28.3" y2="16.6"/>
	<line class="st0" x1="-24.3" y1="16.6" x2="-23.1" y2="16.6"/>
	<line class="st0" x1="-20.7" y1="16.6" x2="-19.4" y2="16.6"/>
	<line class="st0" x1="-17" y1="16.6" x2="-15.7" y2="16.6"/>
	<line class="st0" x1="-13.3" y1="16.6" x2="-12.1" y2="16.6"/>
	<line class="st0" x1="-44.9" y1="21" x2="-43.6" y2="21"/>
	<line class="st0" x1="-40.9" y1="21" x2="-39.7" y2="21"/>
	<line class="st0" x1="-37" y1="21" x2="-35.7" y2="21"/>
	<line class="st0" x1="-33" y1="21" x2="-31.8" y2="21"/>
	<line class="st0" x1="-29.1" y1="21" x2="-27.9" y2="21"/>
	<line class="st0" x1="-25.2" y1="21" x2="-23.9" y2="21"/>
	<line class="st0" x1="-21.2" y1="21" x2="-20" y2="21"/>
	<line class="st0" x1="-17.3" y1="21" x2="-16" y2="21"/>
	<line class="st0" x1="-13.3" y1="21" x2="-12.1" y2="21"/>
	<line class="st0" x1="-44.9" y1="24.6" x2="-43.6" y2="24.6"/>
	<line class="st0" x1="-40.9" y1="24.6" x2="-39.7" y2="24.6"/>
	<line class="st0" x1="-37" y1="24.6" x2="-35.7" y2="24.6"/>
	<line class="st0" x1="-33" y1="24.6" x2="-31.8" y2="24.6"/>
	<line class="st0" x1="-29.1" y1="24.6" x2="-27.9" y2="24.6"/>
	<line class="st0" x1="-25.2" y1="24.6" x2="-23.9" y2="24.6"/>
	<line class="st0" x1="-21.2" y1="24.6" x2="-20" y2="24.6"/>
	<line class="st0" x1="-17.3" y1="24.6" x2="-16" y2="24.6"/>
	<line class="st0" x1="-13.3" y1="24.6" x2="-12.1" y2="24.6"/>
	<line class="st0" x1="-44.9" y1="28.1" x2="-43.6" y2="28.1"/>
	<line class="st0" x1="-40.9" y1="28.1" x2="-39.7" y2="28.1"/>
	<line class="st0" x1="-37" y1="28.1" x2="-35.7" y2="28.1"/>
	<line class="st0" x1="-33" y1="28.1" x2="-31.8" y2="28.1"/>
	<line class="st0" x1="-29.1" y1="28.1" x2="-27.9" y2="28.1"/>
	<line class="st0" x1="-25.2" y1="28.1" x2="-23.9" y2="28.1"/>
	<line class="st0" x1="-21.2" y1="28.1" x2="-20" y2="28.1"/>
	<line class="st0" x1="-17.3" y1="28.1" x2="-16" y2="28.1"/>
	<line class="st0" x1="-13.3" y1="28.1" x2="-12.1" y2="28.1"/>
	<line class="st0" x1="-44.9" y1="31.7" x2="-43.6" y2="31.7"/>
	<line class="st0" x1="-40.9" y1="31.7" x2="-27.9" y2="31.7"/>
	<line class="st0" x1="-25.2" y1="31.7" x2="-23.9" y2="31.7"/>
	<line class="st0" x1="-21.2" y1="31.7" x2="-20" y2="31.7"/>
	<line class="st0" x1="-17.3" y1="31.7" x2="-16" y2="31.7"/>
	<line class="st0" x1="-13.3" y1="31.7" x2="-12.1" y2="31.7"/>
</g>
<g>
	<path class="st0" d="M-9.3-8.3v-6.3H-13c-0.4-1.8-1.1-3.4-2-4.9l2.6-2.6l-4.4-4.5l-2.6,2.6c-1.5-1-3.1-1.7-4.9-2v-3.7h-6.3v3.7
		c-1.8,0.4-3.4,1.1-4.9,2l-2.6-2.6l-4.4,4.5l2.6,2.6c-0.9,1.5-1.6,3.1-2,4.9h-3.7v6.3h3.7c0.4,1.8,1.1,3.4,2,4.9l-2.6,2.6l4.4,4.5
		l2.6-2.6c1.5,1,3.1,1.7,4.9,2v3.7h6.3V3.1c1.8-0.4,3.4-1.1,4.9-2l2.6,2.6l4.4-4.5l-2.6-2.6c0.9-1.5,1.6-3.1,2-4.9H-9.3z"/>
	<ellipse class="st0" cx="-27.5" cy="-11.5" rx="8.6" ry="8.6"/>
</g>
</svg>
