<?xml version="1.0" encoding="utf-8"?>
<!-- Generator: Adobe Illustrator 23.0.2, SVG Export Plug-In . SVG Version: 6.00 Build 0)  -->
<svg version="1.1" id="图层_1" xmlns="http://www.w3.org/2000/svg" xmlns:xlink="http://www.w3.org/1999/xlink" x="0px" y="0px"
	 viewBox="0 0 50 50" style="enable-background:new 0 0 50 50;" xml:space="preserve">
<style type="text/css">
	.st0{clip-path:url(#SVGID_2_);fill:none;stroke:#000000;stroke-width:0.3;stroke-miterlimit:10;}
	.st1{clip-path:url(#SVGID_2_);}
	.st2{clip-path:url(#SVGID_2_);fill:none;stroke:#000000;stroke-width:0.5;stroke-miterlimit:10;}
</style>
<g>
	<defs>
		<rect id="SVGID_1_" x="-4.3" y="-5.3" width="59.2" height="59.2"/>
	</defs>
	<clipPath id="SVGID_2_">
		<use xlink:href="#SVGID_1_"  style="overflow:visible;"/>
	</clipPath>
	<path class="st0" d="M8.4,24.8l3.9-9.6c0,0,1-2.8,3.1-2.7l20.2,0"/>
	<path class="st0" d="M42.2,24.8l-3.9-9.6c0,0-1-2.8-3.1-2.7l-20.2,0"/>
	<polyline class="st0" points="17.7,12.5 18.8,11 31.8,11 	"/>
	<polyline class="st0" points="33.1,12.5 32,11 19,11 	"/>
	<polyline class="st0" points="20.2,11 20.2,3.9 21.3,2.7 29.2,2.7 30.3,3.6 30.3,11 	"/>
	<polyline class="st0" points="18.7,26.9 7.7,26.9 7.7,24.8 42.9,24.8 42.9,26.9 31.8,26.9 	"/>
	<polygon class="st0" points="18.8,24.8 19,35.1 20.2,35.1 20.9,29 22.4,28.9 23.1,25.5 27.5,25.5 27.8,29 29.6,29.1 30.5,35.1 
		31.6,35.1 31.8,24.8 	"/>
	<line class="st0" x1="22.9" y1="26.9" x2="27.6" y2="26.9"/>
	<polyline class="st0" points="9.8,26.9 9.8,31.2 11.6,36.8 38.6,36.8 40.6,31.5 40.6,26.9 	"/>
	<polyline class="st0" points="15.5,37 15.5,44 16.4,45.6 17.7,44.1 17.7,36.8 	"/>
	<polyline class="st0" points="20.2,37 20.2,41.7 29.6,41.7 29.6,36.9 29.6,44 30.5,45.6 31.8,44.1 31.8,36.8 	"/>
	<polyline class="st0" points="20.2,41.7 22,44.8 27.3,44.8 29.3,41.6 	"/>
	<polyline class="st0" points="9.9,21.4 23,21.5 23,23.3 27.6,23.3 27.6,21.4 40.8,21.5 	"/>
	<line class="st0" x1="15" y1="14.4" x2="15" y2="23.3"/>
	<line class="st0" x1="35.5" y1="14.4" x2="35.5" y2="23.3"/>
	<rect x="23.9" y="2.7" class="st0" width="2.7" height="8.3"/>
	<polyline class="st0" points="23.9,4.4 21.7,4.4 21.7,11 	"/>
	<polyline class="st0" points="26.6,4.4 28.8,4.4 28.8,11 	"/>
	<line class="st0" x1="13.6" y1="26.9" x2="13.6" y2="36.8"/>
	<line class="st0" x1="37.1" y1="26.9" x2="37.1" y2="36.8"/>
	<polyline class="st0" points="22.4,28.9 22.4,33.1 20.4,33.1 	"/>
	<line class="st0" x1="18.8" y1="33.1" x2="13.6" y2="33.1"/>
	<polyline class="st0" points="27.8,28.9 27.9,33.1 30.2,33.1 	"/>
	<line class="st0" x1="31.8" y1="33.1" x2="37.2" y2="33.1"/>
	<line class="st0" x1="22.4" y1="29.8" x2="27.9" y2="29.8"/>
	<path class="st1" d="M15,36.8c0,0-0.6,1.2-1.4,0"/>
	<path class="st2" d="M15,36.8c0,0-0.6,1.2-1.4,0"/>
	<path class="st1" d="M36.7,36.8c0,0-0.6,1.2-1.4,0"/>
	<path class="st2" d="M36.7,36.8c0,0-0.6,1.2-1.4,0"/>
</g>
</svg>
